<svg id="Layer_1" data-name="Layer 1" xmlns="http://www.w3.org/2000/svg" viewBox="0 0 1363.88 576.57"><defs><style>.cls-1{fill:#5f9939;}.cls-2{fill:none;}.cls-3{fill:#ffd840;}.cls-4{fill:#231f20;}</style></defs><title>logo</title><path class="cls-1" d="M749.43,691.9H659.67l-144.5-190q-8.11-10.71-9.85-14.48h-1.15V691.9H435.25V276.66h68.92V471.83h1.15a95.37,95.37,0,0,1,9.85-14.19l139.28-181H737L574,475.88Z" transform="translate(-435.25 -254.91)"/><path class="cls-1" d="M863.44,693.9H796v-439h67.47Z" transform="translate(-435.25 -254.91)"/><path class="cls-1" d="M1471.05,459.38q-12.16-9.57-35-9.56-29.84,0-49.81,26.93t-20,73.26V691.9H1299V395.38h67.18v61.1h1.16q9.84-31.28,30.26-48.79t45.61-17.52q18.24,0,27.8,5.5Z" transform="translate(-435.25 -254.91)"/><path class="cls-1" d="M1799.13,395.38l-133.78,344q-41.7,92.08-117,92.09-21.13,0-35.32-3.77V771.82Q1529,777,1542,777q37.65,0,56.18-37.07l20-48.65L1500.29,395.38h74.42l70.66,215.44q1.16,4.06,5.21,21.43H1652q1.44-6.66,5.21-20.85l74.13-216Z" transform="translate(-435.25 -254.91)"/><path class="cls-2" d="M1079.54,442q-39.37,0-62.25,27.51-20.71,24.9-22.65,66.89c28.46-1.66,56.48-5.22,82.93-12.13,27.63-7.13,53.23-18.19,75.58-33.3a84.83,84.83,0,0,0-12.65-22.33Q1119.21,442,1079.54,442Z" transform="translate(-435.25 -254.91)"/><path class="cls-2" d="M1094.79,590.2c-29.35,7.63-58.72,11.62-87.5,13.66a83.74,83.74,0,0,0,10.29,14.92q23.16,26.79,62,26.79,39.68,0,61-26.35,16.37-20.25,20.13-53.71c-.83.42-1.66.85-2.5,1.26A327.88,327.88,0,0,1,1094.79,590.2Z" transform="translate(-435.25 -254.91)"/><path class="cls-1" d="M1215.21,529.31a282.82,282.82,0,0,1-54.58,36.2q-3.78,33.43-20.13,53.71-21.29,26.35-61,26.35-38.8,0-62-26.79a83.74,83.74,0,0,1-10.29-14.92c-13.53.95-26.94,1.48-40.15,1.74q-16.3.28-32.29.08a135.3,135.3,0,0,0,31.91,51.62q41,41.55,109.6,41.55,70.65,0,112.5-42.71t41.84-113.66a237.88,237.88,0,0,0-1.37-26.1c-.51.51-1,1-1.53,1.54Z" transform="translate(-435.25 -254.91)"/><path class="cls-1" d="M965.85,537.47c9.62-.18,19.23-.52,28.79-1.07q2-42,22.65-66.89Q1040.17,442,1079.54,442q39.68,0,61,26.64A84.83,84.83,0,0,1,1153.15,491a203.07,203.07,0,0,0,18-13.63l9.54-8.62,9-9.19c4.72-5.16,9.41-10.55,13.89-16.06a125.92,125.92,0,0,0-11.65-14.21q-38.81-40.83-108.3-40.83-72.39,0-115.11,42-39.88,39.21-42.52,107C939.27,537.65,952.57,537.71,965.85,537.47Z" transform="translate(-435.25 -254.91)"/><path class="cls-3" d="M1016.35,572.72a1.75,1.75,0,0,0-1.44-.57,1.89,1.89,0,0,0-1.42.83,2.73,2.73,0,0,0-.43,1.83,2.61,2.61,0,0,0,.73,1.69,1.77,1.77,0,0,0,1.47.55,1.87,1.87,0,0,0,1.4-.84,2.91,2.91,0,0,0-.31-3.49Z" transform="translate(-435.25 -254.91)"/><path class="cls-3" d="M994.64,536.4c-.14,2.93-.23,5.91-.23,9q0,34.75,12.88,58.48c28.78-2,58.15-6,87.5-13.66a327.88,327.88,0,0,0,63.34-23.43c.84-.41,1.67-.84,2.5-1.26a188.87,188.87,0,0,0,1.16-21.29c0-3.59-.11-7.08-.28-10.5l-.5-.86.45-.28c-.11-1.93-.24-3.83-.41-5.71l-.74-1.23.58-.35c-.15-1.53-.3-3-.49-4.53-2.47,1.5-4.76,2.91-4.76,2.91l-.94-1.6,5.42-3.3c-.18-1.3-.36-2.58-.57-3.85l-.09-.07.07,0a119.07,119.07,0,0,0-6.38-23.84c-22.35,15.11-48,26.17-75.58,33.3C1051.12,531.18,1023.1,534.74,994.64,536.4Zm10,27.5,4.93-.33,4.92-.46a9.29,9.29,0,0,1-1.22-1.65,13.88,13.88,0,0,1-1-1.86l1.48-.14a11.65,11.65,0,0,0,1.71,2.56,6.31,6.31,0,0,0,1.83,1.48l.11,1.18-6.33.6c-3.16.29-6.34.46-6.34.46Zm13,13.62a3,3,0,0,1-2.28,1.42,2.34,2.34,0,0,1-1.62-.4,3.55,3.55,0,0,1-1.17-1.56,4,4,0,0,1-1.07,2.21,3,3,0,0,1-2,.89,3.54,3.54,0,0,1-2.89-1.18,6.3,6.3,0,0,1-.52-7.16,3.44,3.44,0,0,1,2.68-1.54,3.19,3.19,0,0,1,2.15.57,3.78,3.78,0,0,1,1.31,2,3.62,3.62,0,0,1,.88-1.8,2.43,2.43,0,0,1,1.53-.7,2.92,2.92,0,0,1,2.45,1,5.63,5.63,0,0,1,.56,6.28Zm17.49,8.66-5.28-43,1.17-.15,5.39,43Zm9.36-26.63,9.73-1.54a9.65,9.65,0,0,1-1.35-1.56,14.51,14.51,0,0,1-1.11-1.79l1.46-.23a12,12,0,0,0,1.92,2.43,6,6,0,0,0,1.94,1.3l.21,1.17-1.95.37-4.3.68-6.27,1Zm14,14.41a19.73,19.73,0,0,0-4-2.24,20.36,20.36,0,0,0-4.79-1.45,14.74,14.74,0,0,0-3.61-.14l-.28-1.88a13.34,13.34,0,0,1,3.72.12,17.71,17.71,0,0,1,4.41,1.23,18.63,18.63,0,0,1,3.8,2.09l-1.28-7.26,1.48-.28,1.73,9.57Zm16.76,5.55-9.21-42.31,1.11-.27,9.37,42.28Zm61.16-67.2,20.29,38.26-1.16.62-20.1-38.37Zm1.79,36-1.4.64-2.46-5.47-3.47.7a5.46,5.46,0,0,1,1.87,2.27A4.9,4.9,0,0,1,1133,550a3.64,3.64,0,0,1-2.31,2.43,4.43,4.43,0,0,1-3.32,0,5.07,5.07,0,0,1-2.95-3.07,5.45,5.45,0,0,1-.33-3.48,3.6,3.6,0,0,1,1.85-2.32l.87,1.74a2.86,2.86,0,0,0-1.32,1.59,3,3,0,0,0,.15,2,3.14,3.14,0,0,0,1.66,1.77,3,3,0,0,0,2.5,0,2.7,2.7,0,0,0,1.68-1.62,3.37,3.37,0,0,0-.2-2.45,3.67,3.67,0,0,0-.94-1.34,3.28,3.28,0,0,0-1.28-.69l-.5-1.67,6.57-1.39Zm-13.3-11.4c1.14-.42,2.24-.94,3.07-1.33l1.38-.63a9.17,9.17,0,0,1-1.66-1.17,12.83,12.83,0,0,1-1.48-1.45l1.32-.61a10.75,10.75,0,0,0,2.41,1.87,5.74,5.74,0,0,0,2.18.8l.5,1.09-5.71,2.62-5.86,2.31-.68-1.71Zm-20.35-10.63,14.54,40.8-1.23.41-14.38-40.85Zm-1.71,31.34a4.74,4.74,0,0,1,.05,3,3.49,3.49,0,0,1-1.91,2l-.65-1.73a2.75,2.75,0,0,0,1.11-1,2.52,2.52,0,0,0,.11-1.95,3,3,0,0,0-.85-1.37,4,4,0,0,0-1.93-.88,7.21,7.21,0,0,0-3,.32,4.24,4.24,0,0,1,1.7,1.21,5.27,5.27,0,0,1,1,1.82,4.47,4.47,0,0,1-.24,3.34,4,4,0,0,1-2.58,2.09,4.54,4.54,0,0,1-2.37,0,4.1,4.1,0,0,1-2-1.17,5.67,5.67,0,0,1-.76-6.22q1-1.8,4.18-2.71,3.54-1,5.63.07A5.07,5.07,0,0,1,1102.86,557.66Zm-7.73-11.95a14.62,14.62,0,0,1-1.31-1.64l1.41-.4a11.28,11.28,0,0,0,2.19,2.18,5.51,5.51,0,0,0,2.08,1.09l.36,1.13-12.13,3.5-.48-1.79,9.4-2.68A10.15,10.15,0,0,1,1095.13,545.71Z" transform="translate(-435.25 -254.91)"/><path class="cls-3" d="M927.3,577.05a2.69,2.69,0,0,0,1,2.1c-.18-1.15-.36-2.31-.53-3.47A2.6,2.6,0,0,0,927.3,577.05Z" transform="translate(-435.25 -254.91)"/><path class="cls-3" d="M1093.5,557a3.25,3.25,0,0,0-1.39.82,2.85,2.85,0,0,0-.79,1.4,3.24,3.24,0,0,0,0,1.58,2.79,2.79,0,0,0,1.32,1.72,2.94,2.94,0,0,0,2.37.2,2.76,2.76,0,0,0,1.81-1.39,2.87,2.87,0,0,0,.16-2.22,3.13,3.13,0,0,0-1.33-1.83A2.59,2.59,0,0,0,1093.5,557Z" transform="translate(-435.25 -254.91)"/><path class="cls-3" d="M1010.86,572.8a2.36,2.36,0,0,0-1.89-.71,2.41,2.41,0,0,0-1.28.46,2.47,2.47,0,0,0-.89,1.17,3.79,3.79,0,0,0-.22,1.61,3.25,3.25,0,0,0,.89,2.13,2.36,2.36,0,0,0,1.92.74,2.31,2.31,0,0,0,1.82-1,3.39,3.39,0,0,0,.57-2.29A3.17,3.17,0,0,0,1010.86,572.8Z" transform="translate(-435.25 -254.91)"/><path class="cls-3" d="M1161.05,526.87c.17,1.88.3,3.78.41,5.71l2.22-1.34Z" transform="translate(-435.25 -254.91)"/><polygon class="cls-3" points="734.71 272.5 727.24 271.54 729.68 275.56 734.71 272.5"/><path class="cls-3" d="M975.15,579.81a2.88,2.88,0,0,0,2.14-.9,2.83,2.83,0,0,0,.73-2,3.11,3.11,0,0,0-.93-2.13,2.93,2.93,0,0,0-2.24-.86,2.5,2.5,0,0,0-2,.91,3.05,3.05,0,0,0-.71,2.16A2.92,2.92,0,0,0,973,579,2.73,2.73,0,0,0,975.15,579.81Z" transform="translate(-435.25 -254.91)"/><path class="cls-3" d="M1161.16,516.09a15.43,15.43,0,0,1-1.61-1.17c.21,1.27.39,2.55.57,3.85L1163,517A9.08,9.08,0,0,1,1161.16,516.09Z" transform="translate(-435.25 -254.91)"/><path class="cls-3" d="M1218.5,477.63a2.43,2.43,0,0,1,.88-.67,4.82,4.82,0,0,1,1.13-.35c-.67-1.91-1.38-3.81-2.12-5.67l-3.24,3.7-1.38-1.23,3.83-4.37a132.63,132.63,0,0,0-14-25.57c-4.48,5.51-9.17,10.9-13.89,16.06l-9,9.19-9.54,8.62a203.07,203.07,0,0,1-18,13.63,119.07,119.07,0,0,1,6.38,23.84l1.17-.71a11.62,11.62,0,0,0,2.69,1.52,5.39,5.39,0,0,0,2.29.49l.66,1s-.64.46-1.66,1L1161,520.4l-.59.36c.19,1.49.34,3,.49,4.53l.65-.39,5.35.75c2.7.37,5.42.67,5.42.67l.83,1.26s-1.79,1.14-3.61,2.25l-3.64,2.22,1.06,1.73-1.28.78-1-1.74-2.69,1.63-.43-.73c.17,3.42.28,6.91.28,10.5a188.87,188.87,0,0,1-1.16,21.29,282.82,282.82,0,0,0,54.58-36.2l12.59-11.39c.52-.51,1-1,1.53-1.54a180.09,180.09,0,0,0-7.45-35.74Zm-29,19.76,2.48-2.24,3.6-3.25a9.41,9.41,0,0,1-2-.6,12.26,12.26,0,0,1-1.88-.91l1.07-1a11.39,11.39,0,0,0,2.91,1,5.94,5.94,0,0,0,2.34.09l.82.87-9.33,8.4-1.19-1.41S1188.83,498,1189.49,497.39Zm1,31.9-26-34.66.85-.68,26.14,34.53Zm16.2-27a3,3,0,0,1-.89,1.55,2.55,2.55,0,0,1-1.51.65,3.46,3.46,0,0,1-1.86-.4,3.59,3.59,0,0,1,.55,2.29,3.13,3.13,0,0,1-1.1,2,3.58,3.58,0,0,1-3.11.88,5.42,5.42,0,0,1-3.26-2,5.25,5.25,0,0,1-1.35-3.15,3.84,3.84,0,0,1,1-2.88l1.36,1.26a3.48,3.48,0,0,0-.73,2.11,3.07,3.07,0,0,0,.77,1.82,3.2,3.2,0,0,0,2,1.15,2.45,2.45,0,0,0,2-.63,2.37,2.37,0,0,0,.81-1.86,3.17,3.17,0,0,0-.87-2.06,6.23,6.23,0,0,0-1-.85l1.17-.79.19.24a4.25,4.25,0,0,0,1.81,1.22,1.79,1.79,0,0,0,1.87-.41,1.82,1.82,0,0,0,.61-1.49,2.6,2.6,0,0,0-.77-1.69,2.84,2.84,0,0,0-1.65-.93,2.8,2.8,0,0,0-1.92.49l-1-1.55a3.94,3.94,0,0,1,2.85-.51,5,5,0,0,1,2.69,1.59,5.42,5.42,0,0,1,1.21,2A3.6,3.6,0,0,1,1206.69,502.26Zm14.62-.35-31.18-30.06.77-.79L1222.23,501Z" transform="translate(-435.25 -254.91)"/><path class="cls-3" d="M967.14,605.6c13.21-.26,26.62-.79,40.15-1.74q-12.87-23.73-12.88-58.48c0-3.07.09-6,.23-9-9.56.55-19.17.89-28.79,1.07-13.28.24-26.58.18-39.88-.07-.12,3.19-.19,6.43-.19,9.72q0,8.8.68,17.16l.08-4.07a2.23,2.23,0,0,1,1.07.24,5.92,5.92,0,0,1,1.67,1.24,19.94,19.94,0,0,1,1.88,2.44,18.32,18.32,0,0,0,2.64,3.34,2.94,2.94,0,0,0,1.87.88,1.93,1.93,0,0,0,1.57-.77,3.16,3.16,0,0,0,.66-2,3.22,3.22,0,0,0-.65-2.14,2.4,2.4,0,0,0-1.86-.83l.18-1.89a3.72,3.72,0,0,1,2.71,1.49,5.66,5.66,0,0,1,.91,3.43,5.24,5.24,0,0,1-1.05,3.41,3.08,3.08,0,0,1-2.53,1.24,3.29,3.29,0,0,1-1.5-.39,5.59,5.59,0,0,1-1.53-1.24,25.36,25.36,0,0,1-2.2-2.87c-.77-1.11-1.29-1.83-1.56-2.15a5,5,0,0,0-.83-.79l-.13,7.37-.83,0c.13,1.15.27,2.3.42,3.44,1.08-.94,2.8-1.41,5.16-1.38a10.07,10.07,0,0,1,3.64.58,4.54,4.54,0,0,1,2.11,1.66,4.62,4.62,0,0,1,.73,2.73,5,5,0,0,1-.43,2.12,3.91,3.91,0,0,1-1.21,1.49,6.07,6.07,0,0,1-1.93.92,11,11,0,0,1-3,.31,10.33,10.33,0,0,1-3.65-.59l-.2-.1a158.79,158.79,0,0,0,6.22,24.34Q950.83,605.86,967.14,605.6Zm26.68-59.22,2.38,43.25-1.28.06-2.3-43.25ZM975,563.64a13.73,13.73,0,0,1-.86-1.92l1.5,0a11.4,11.4,0,0,0,1.57,2.68,5.93,5.93,0,0,0,1.74,1.57l0,1.19-12.74.32,0-1.85,9.9-.22A9.8,9.8,0,0,1,975,563.64Zm-8,10.13a3.47,3.47,0,0,1,2.31-1.4l.19,1.77a2.52,2.52,0,0,0-1.53.9,2.67,2.67,0,0,0-.45,1.64,3.07,3.07,0,0,0,.37,1.49,2.91,2.91,0,0,0,.91,1,4.59,4.59,0,0,0,1.52.65,7,7,0,0,0,1.94.24l.32,0a4,4,0,0,1-1.27-1.49,4.66,4.66,0,0,1-.52-2.06,4.57,4.57,0,0,1,1.08-3.19,3.87,3.87,0,0,1,3-1.36,4,4,0,0,1,3.16,1.28,4.85,4.85,0,0,1,1.31,3.32,5.5,5.5,0,0,1-.59,2.71,4.32,4.32,0,0,1-1.87,1.91,8.47,8.47,0,0,1-3.61.71,10.08,10.08,0,0,1-4-.54,4.68,4.68,0,0,1-2.27-1.81,5.4,5.4,0,0,1-.81-2.88A4.66,4.66,0,0,1,967,573.77Zm-11.27-26.32.26,43.3h-1.28l-.2-43.31Z" transform="translate(-435.25 -254.91)"/><path class="cls-3" d="M932.5,580.13c2.12,0,3.53-.26,4.23-.83a2.7,2.7,0,0,0,1.06-2.15,2.5,2.5,0,0,0-.9-2c-.77-.64-2.21-1-4.3-1s-3.51.25-4.21.81a3.07,3.07,0,0,0-.66.75c.17,1.16.35,2.32.53,3.47l.06.06C929,579.81,930.4,580.1,932.5,580.13Z" transform="translate(-435.25 -254.91)"/><polygon class="cls-4" points="754.89 216.94 786.06 247 786.98 246.06 755.65 216.16 754.89 216.94"/><polygon class="cls-4" points="729.28 239.72 755.25 274.38 756.27 273.57 730.13 239.04 729.28 239.72"/><polygon class="cls-4" points="721.47 295.66 701.18 257.4 700.22 257.92 720.32 296.27 721.47 295.66"/><polygon class="cls-4" points="683.86 312.2 669.32 271.41 668.26 271.77 682.63 312.62 683.86 312.2"/><path class="cls-4" d="M1215.15,474.64l3.24-3.7c-.26-.64-.53-1.27-.79-1.9l-3.83,4.37Z" transform="translate(-435.25 -254.91)"/><path class="cls-4" d="M1218.5,477.63l3.38,3c-.44-1.35-.9-2.7-1.37-4a4.82,4.82,0,0,0-1.13.35A2.43,2.43,0,0,0,1218.5,477.63Z" transform="translate(-435.25 -254.91)"/><path class="cls-4" d="M1198.87,491.4l-.82-.87a5.94,5.94,0,0,1-2.34-.09,11.39,11.39,0,0,1-2.91-1l-1.07,1a12.26,12.26,0,0,0,1.88.91,9.41,9.41,0,0,0,2,.6l-3.6,3.25-2.48,2.24c-.66.62-1.14,1-1.14,1l1.19,1.41Z" transform="translate(-435.25 -254.91)"/><path class="cls-4" d="M1205.33,498.29a5,5,0,0,0-2.69-1.59,3.94,3.94,0,0,0-2.85.51l1,1.55a2.8,2.8,0,0,1,1.92-.49,2.84,2.84,0,0,1,1.65.93,2.6,2.6,0,0,1,.77,1.69,1.82,1.82,0,0,1-.61,1.49,1.79,1.79,0,0,1-1.87.41,4.25,4.25,0,0,1-1.81-1.22l-.19-.24-1.17.79a6.23,6.23,0,0,1,1,.85,3.17,3.17,0,0,1,.87,2.06,2.37,2.37,0,0,1-.81,1.86,2.45,2.45,0,0,1-2,.63,3.2,3.2,0,0,1-2-1.15,3.07,3.07,0,0,1-.77-1.82,3.48,3.48,0,0,1,.73-2.11l-1.36-1.26a3.84,3.84,0,0,0-1,2.88,5.25,5.25,0,0,0,1.35,3.15,5.42,5.42,0,0,0,3.26,2,3.58,3.58,0,0,0,3.11-.88,3.13,3.13,0,0,0,1.1-2,3.59,3.59,0,0,0-.55-2.29,3.46,3.46,0,0,0,1.86.4,2.55,2.55,0,0,0,1.51-.65,3,3,0,0,0,.89-1.55,3.6,3.6,0,0,0-.15-2A5.42,5.42,0,0,0,1205.33,498.29Z" transform="translate(-435.25 -254.91)"/><path class="cls-4" d="M1159.55,514.92a.43.43,0,0,1,0-.11l-.07,0Z" transform="translate(-435.25 -254.91)"/><path class="cls-4" d="M1154.7,522.07l.94,1.6s2.29-1.41,4.76-2.91c-.08-.67-.19-1.33-.28-2Z" transform="translate(-435.25 -254.91)"/><path class="cls-4" d="M1161.16,516.09a9.08,9.08,0,0,0,1.84.93l-2.88,1.75c.09.66.2,1.32.28,2l.59-.36,3.69-2.25c1-.59,1.66-1,1.66-1l-.66-1a5.39,5.39,0,0,1-2.29-.49,11.62,11.62,0,0,1-2.69-1.52l-1.17.71a.43.43,0,0,0,0,.11A15.43,15.43,0,0,0,1161.16,516.09Z" transform="translate(-435.25 -254.91)"/><path class="cls-4" d="M1161,532.86l.5.86c0-.37,0-.76,0-1.14Z" transform="translate(-435.25 -254.91)"/><path class="cls-4" d="M1161.05,526.87c0-.53-.11-1-.16-1.58l-.58.35Z" transform="translate(-435.25 -254.91)"/><path class="cls-4" d="M1163.68,531.24l-2.22,1.34c0,.38,0,.77,0,1.14l.43.73,2.69-1.63,1,1.74,1.28-.78-1.06-1.73,3.64-2.22c1.82-1.11,3.61-2.25,3.61-2.25l-.83-1.26s-2.72-.3-5.42-.67l-5.35-.75-.65.39c0,.53.12,1.05.16,1.58Zm6.27-3.83-5,3.06-2.45-4Z" transform="translate(-435.25 -254.91)"/><path class="cls-4" d="M1126.93,538.14l5.71-2.62-.5-1.09a5.74,5.74,0,0,1-2.18-.8,10.75,10.75,0,0,1-2.41-1.87l-1.32.61a12.83,12.83,0,0,0,1.48,1.45,9.17,9.17,0,0,0,1.66,1.17l-1.38.63c-.83.39-1.93.91-3.07,1.33l-4.53,1.79.68,1.71Z" transform="translate(-435.25 -254.91)"/><path class="cls-4" d="M1129.06,544.6a3.28,3.28,0,0,1,1.28.69,3.67,3.67,0,0,1,.94,1.34,3.37,3.37,0,0,1,.2,2.45,2.7,2.7,0,0,1-1.68,1.62,3,3,0,0,1-2.5,0,3.14,3.14,0,0,1-1.66-1.77,3,3,0,0,1-.15-2,2.86,2.86,0,0,1,1.32-1.59l-.87-1.74a3.6,3.6,0,0,0-1.85,2.32,5.45,5.45,0,0,0,.33,3.48,5.07,5.07,0,0,0,2.95,3.07,4.43,4.43,0,0,0,3.32,0A3.64,3.64,0,0,0,1133,550a4.9,4.9,0,0,0-.24-3.54,5.46,5.46,0,0,0-1.87-2.27l3.47-.7,2.46,5.47,1.4-.64-3.09-6.81-6.57,1.39Z" transform="translate(-435.25 -254.91)"/><path class="cls-4" d="M1087.73,551.57l12.13-3.5-.36-1.13a5.51,5.51,0,0,1-2.08-1.09,11.28,11.28,0,0,1-2.19-2.18l-1.41.4a14.62,14.62,0,0,0,1.31,1.64,10.15,10.15,0,0,0,1.52,1.39l-9.4,2.68Z" transform="translate(-435.25 -254.91)"/><path class="cls-4" d="M1094.69,554.41q-3.18.92-4.18,2.71a5.67,5.67,0,0,0,.76,6.22,4.1,4.1,0,0,0,2,1.17,4.54,4.54,0,0,0,2.37,0,4,4,0,0,0,2.58-2.09,4.47,4.47,0,0,0,.24-3.34,5.27,5.27,0,0,0-1-1.82,4.24,4.24,0,0,0-1.7-1.21,7.21,7.21,0,0,1,3-.32,4,4,0,0,1,1.93.88,3,3,0,0,1,.85,1.37,2.52,2.52,0,0,1-.11,1.95,2.75,2.75,0,0,1-1.11,1l.65,1.73a3.49,3.49,0,0,0,1.91-2,4.74,4.74,0,0,0-.05-3,5.07,5.07,0,0,0-2.54-3.18Q1098.24,553.4,1094.69,554.41Zm2.32,4.66a2.87,2.87,0,0,1-.16,2.22,2.76,2.76,0,0,1-1.81,1.39,2.94,2.94,0,0,1-2.37-.2,2.79,2.79,0,0,1-1.32-1.72,3.24,3.24,0,0,1,0-1.58,2.85,2.85,0,0,1,.79-1.4,3.25,3.25,0,0,1,1.39-.82,2.59,2.59,0,0,1,2.18.28A3.13,3.13,0,0,1,1097,559.07Z" transform="translate(-435.25 -254.91)"/><polygon class="cls-4" points="630.81 282.29 640.02 324.61 641.29 324.31 631.92 282.02 630.81 282.29"/><polygon class="cls-4" points="594.66 288.29 599.95 331.27 601.22 331.11 595.83 288.14 594.66 288.29"/><polygon class="cls-4" points="560.95 334.72 558.58 291.47 557.37 291.53 559.67 334.78 560.95 334.72"/><polygon class="cls-4" points="520.72 335.84 520.46 292.54 519.24 292.54 519.44 335.85 520.72 335.84"/><path class="cls-4" d="M1055.4,559.7l1.95-.37-.21-1.17a6,6,0,0,1-1.94-1.3,12,12,0,0,1-1.92-2.43l-1.46.23a14.51,14.51,0,0,0,1.11,1.79,9.65,9.65,0,0,0,1.35,1.56l-9.73,1.54.28,1.82,6.27-1Z" transform="translate(-435.25 -254.91)"/><path class="cls-4" d="M1056.52,564.43l1.28,7.26a18.63,18.63,0,0,0-3.8-2.09,17.71,17.71,0,0,0-4.41-1.23,13.34,13.34,0,0,0-3.72-.12l.28,1.88a14.74,14.74,0,0,1,3.61.14,20.36,20.36,0,0,1,4.79,1.45,19.73,19.73,0,0,1,4,2.24l1.22-.24-1.73-9.57Z" transform="translate(-435.25 -254.91)"/><path class="cls-4" d="M1017.47,564.68l-.11-1.18a6.31,6.31,0,0,1-1.83-1.48,11.65,11.65,0,0,1-1.71-2.56l-1.48.14a13.88,13.88,0,0,0,1,1.86,9.29,9.29,0,0,0,1.22,1.65l-4.92.46-4.93.33.13,1.84s3.18-.17,6.34-.46Z" transform="translate(-435.25 -254.91)"/><path class="cls-4" d="M1017.14,571.24a2.92,2.92,0,0,0-2.45-1,2.43,2.43,0,0,0-1.53.7,3.62,3.62,0,0,0-.88,1.8,3.78,3.78,0,0,0-1.31-2,3.19,3.19,0,0,0-2.15-.57,3.44,3.44,0,0,0-2.68,1.54,6.3,6.3,0,0,0,.52,7.16,3.54,3.54,0,0,0,2.89,1.18,3,3,0,0,0,2-.89,4,4,0,0,0,1.07-2.21,3.55,3.55,0,0,0,1.17,1.56,2.34,2.34,0,0,0,1.62.4,3,3,0,0,0,2.28-1.42,5.63,5.63,0,0,0-.56-6.28Zm-5.93,5.93a2.31,2.31,0,0,1-1.82,1,2.36,2.36,0,0,1-1.92-.74,3.25,3.25,0,0,1-.89-2.13,3.79,3.79,0,0,1,.22-1.61,2.47,2.47,0,0,1,.89-1.17,2.41,2.41,0,0,1,1.28-.46,2.36,2.36,0,0,1,1.89.71,3.17,3.17,0,0,1,.92,2.08A3.39,3.39,0,0,1,1011.21,577.17Zm5.45-1a1.87,1.87,0,0,1-1.4.84,1.77,1.77,0,0,1-1.47-.55,2.61,2.61,0,0,1-.73-1.69,2.73,2.73,0,0,1,.43-1.83,1.89,1.89,0,0,1,1.42-.83,1.75,1.75,0,0,1,1.44.57,2.91,2.91,0,0,1,.31,3.49Z" transform="translate(-435.25 -254.91)"/><path class="cls-4" d="M966.25,567.44l12.74-.32,0-1.19a5.93,5.93,0,0,1-1.74-1.57,11.4,11.4,0,0,1-1.57-2.68l-1.5,0a13.73,13.73,0,0,0,.86,1.92,9.8,9.8,0,0,0,1.12,1.73l-9.9.22Z" transform="translate(-435.25 -254.91)"/><path class="cls-4" d="M969.29,581.36a10.08,10.08,0,0,0,4,.54,8.47,8.47,0,0,0,3.61-.71,4.32,4.32,0,0,0,1.87-1.91,5.5,5.5,0,0,0,.59-2.71,4.85,4.85,0,0,0-1.31-3.32,4,4,0,0,0-3.16-1.28,3.87,3.87,0,0,0-3,1.36,4.57,4.57,0,0,0-1.08,3.19,4.66,4.66,0,0,0,.52,2.06,4,4,0,0,0,1.27,1.49l-.32,0a7,7,0,0,1-1.94-.24,4.59,4.59,0,0,1-1.52-.65,2.91,2.91,0,0,1-.91-1,3.07,3.07,0,0,1-.37-1.49A2.67,2.67,0,0,1,968,575a2.52,2.52,0,0,1,1.53-.9l-.19-1.77a3.47,3.47,0,0,0-2.31,1.4,4.66,4.66,0,0,0-.77,2.9,5.4,5.4,0,0,0,.81,2.88A4.68,4.68,0,0,0,969.29,581.36Zm2.89-4.42a3.05,3.05,0,0,1,.71-2.16,2.5,2.5,0,0,1,2-.91,2.93,2.93,0,0,1,2.24.86,3.11,3.11,0,0,1,.93,2.13,2.83,2.83,0,0,1-.73,2,2.88,2.88,0,0,1-2.14.9A2.73,2.73,0,0,1,973,579,2.92,2.92,0,0,1,972.18,576.94Z" transform="translate(-435.25 -254.91)"/><path class="cls-4" d="M927.86,570.18l.13-7.37a5,5,0,0,1,.83.79c.27.32.79,1,1.56,2.15a25.36,25.36,0,0,0,2.2,2.87,5.59,5.59,0,0,0,1.53,1.24,3.29,3.29,0,0,0,1.5.39,3.08,3.08,0,0,0,2.53-1.24,5.24,5.24,0,0,0,1.05-3.41,5.66,5.66,0,0,0-.91-3.43,3.72,3.72,0,0,0-2.71-1.49l-.18,1.89a2.4,2.4,0,0,1,1.86.83,3.22,3.22,0,0,1,.65,2.14,3.16,3.16,0,0,1-.66,2,1.93,1.93,0,0,1-1.57.77,2.94,2.94,0,0,1-1.87-.88,18.32,18.32,0,0,1-2.64-3.34,19.94,19.94,0,0,0-1.88-2.44,5.92,5.92,0,0,0-1.67-1.24,2.23,2.23,0,0,0-1.07-.24l-.08,4.07c.16,2,.36,3.94.57,5.88Z" transform="translate(-435.25 -254.91)"/><path class="cls-4" d="M928.38,574.93c.7-.56,2.11-.84,4.21-.81s3.53.35,4.3,1a2.5,2.5,0,0,1,.9,2,2.7,2.7,0,0,1-1.06,2.15c-.7.57-2.11.85-4.23.83s-3.5-.32-4.19-.92a.34.34,0,0,0-.06-.06c.12.74.25,1.46.38,2.19l.2.1a10.33,10.33,0,0,0,3.65.59,11,11,0,0,0,3-.31,6.07,6.07,0,0,0,1.93-.92,3.91,3.91,0,0,0,1.21-1.49,5,5,0,0,0,.43-2.12,4.62,4.62,0,0,0-.73-2.73,4.54,4.54,0,0,0-2.11-1.66,10.07,10.07,0,0,0-3.64-.58c-2.36,0-4.08.44-5.16,1.38.09.69.17,1.39.27,2.08A3.07,3.07,0,0,1,928.38,574.93Z" transform="translate(-435.25 -254.91)"/></svg>