<svg id="Layer_1" data-name="Layer 1" xmlns="http://www.w3.org/2000/svg" viewBox="0 0 1495.46 575.56"><defs><style>.cls-1{fill:#71bf43;}.cls-2{fill:#726658;}.cls-3{fill:#a6ce38;}.cls-4{fill:#ed1c24;}</style></defs><title>logo</title><path class="cls-1" d="M330.06,263.82V414.66L501.15,236.24q12.32-12.92,21-19.08t23-6.16q18.78,0,30.38,11a35.62,35.62,0,0,1,11.59,26.85q0,19.08-19.66,37.85L461.53,387.08,583.61,562q12.9,18.19,19.37,31.84t6.45,26.55q0,14.39-11.3,25t-30.66,10.56q-18.21,0-29.64-7.77a66.79,66.79,0,0,1-19.37-20.69q-7.92-12.92-14.09-23.48l-103-158.47-71.31,68.38v88.92q0,27-12.32,40.05T286,655.88A42.6,42.6,0,0,1,264.62,650a41.1,41.1,0,0,1-15.85-15.84,51.71,51.71,0,0,1-5-19.08q-.87-10.85-.88-31.4V263.82q0-26.4,11.6-39.61T286,211q19.66,0,31.84,13.06T330.06,263.82Z" transform="translate(-242.9 -199.17)"/><path class="cls-1" d="M681.62,607.17V259.71q0-24,10.71-36.38T721.24,211q18.19,0,29.34,12.18t11.16,36.53V607.17q0,24.36-11.3,36.53t-29.2,12.18q-17.61,0-28.61-12.62T681.62,607.17Z" transform="translate(-242.9 -199.17)"/><path class="cls-1" d="M1287,540.26v66.91q0,24.36-11.44,36.53t-29,12.18q-17.33,0-28.47-12.32t-11.15-36.39v-223q0-54,39-54,19.95,0,28.76,12.62t9.68,37.27q14.38-24.64,29.5-37.27t40.34-12.62q25.24,0,49,12.62T1427,376.22q0,14.67-10.12,24.21T1395,410q-4.41,0-21.28-5.42T1344,399.11q-17.6,0-28.75,9.24t-17.32,27.44q-6.17,18.19-8.51,43.28T1287,540.26Z" transform="translate(-242.9 -199.17)"/><path class="cls-1" d="M1544.68,665.86,1552,648l-98.61-248.27q-9.09-21.4-9.09-31.1a36.44,36.44,0,0,1,5.28-19.08,39.3,39.3,0,0,1,14.53-14.08,38.21,38.21,0,0,1,19.22-5.29q17.31,0,26.11,11T1525,372.7l67.79,197.2,64.26-183.41q7.64-22.31,13.8-34.92t13.05-17q6.9-4.41,19.52-4.41A34.38,34.38,0,0,1,1720.9,335a33.68,33.68,0,0,1,12.91,13.06,35.27,35.27,0,0,1,4.55,17.31q-1.17,5.58-3.81,15.85T1728.09,402l-104.47,273.5q-13.5,36.11-26.41,56.64A87,87,0,0,1,1563,763.73q-21.29,11-57.37,11-35.22,0-52.82-7.63t-17.61-27.88q0-13.79,8.36-21.27t24.8-7.48a45.52,45.52,0,0,1,12.62,1.76,60.15,60.15,0,0,0,13.2,1.76q13.8,0,21.72-4.11t14.23-14.23Q1536.46,685.53,1544.68,665.86Z" transform="translate(-242.9 -199.17)"/><path class="cls-2" d="M969.08,368.6C969.08,372,950.51,250.37,987,227l24.74,19.94S969.08,268.93,969.08,368.6Z" transform="translate(-242.9 -199.17)"/><path class="cls-1" d="M978.86,344.68s7.9-76.3,87.3-70.46C1066.16,274.22,1059.62,342.62,978.86,344.68Z" transform="translate(-242.9 -199.17)"/><path class="cls-3" d="M957.4,325s-107.61-13.78-96.64-125.84C860.76,199.17,957.24,210.74,957.4,325Z" transform="translate(-242.9 -199.17)"/><path class="cls-4" d="M1168.93,455.4c-1.27-40.06-26.38-94.44-85.87-99-83-6.4-82.23,31.57-116.92,31.15-38.7-.45-81-49.13-140.73-7.56-61.53,42.86-32.24,121.72-17.49,156.45,18.29,43,50.36,89.71,96.4,112.34,21.89,10.76,49.37,10.19,66.3.68,26.74-15,44.65-2.25,71.37,2.14,39.7,6.53,64.41-36.42,80.82-62.19C1148.14,549.61,1170.42,502.27,1168.93,455.4ZM1059,553.14c-9.24,14.49-23.13,38.65-45.47,35-15-2.47-25.1-9.65-40.14-1.2-9.53,5.35-25,5.67-37.3-.39-25.9-12.73-43.94-39-54.23-63.19-8.3-19.54-24.77-63.9,9.84-88,33.57-23.38,57.39,4,79.17,4.26,19.51.23,19.05-21.13,65.77-17.53,33.46,2.58,47.58,33.17,48.3,55.7C1085.8,504.13,1073.27,530.76,1059,553.14Z" transform="translate(-242.9 -199.17)"/></svg>